<svg id="Layer_1" data-name="Layer 1" xmlns="http://www.w3.org/2000/svg" viewBox="0 0 512 512"><defs><style>.cls-1{fill:#ee305e;}</style></defs><title>icons source</title><path class="cls-1" d="M288,511.14c.1-2,.3-4,.3-6q0-60.9,0-121.8v-6.95c3.28,0,6.35.06,9.41,0,6.81-.15,13.7.24,20.4-.69,11.68-1.61,17-8.2,17-20.09.07-28,0-55.91,0-83.87,0-22.46-.08-44.92,0-67.39.06-11.85-5.74-22-20.63-22.16-17-.18-33.93-.44-50.89-.42-22.12,0-44.25.11-66.36.54-12,.23-19.43,8-19.46,20.14q-.15,77.13,0,154.25c0,12.33,7.9,19.36,21.51,19.67,7.6.16,15.22,0,23.44,0v6.44q0,60.9,0,121.8c0,2.16.15,4.31.23,6.47h-16c.09-2.16.24-4.31.24-6.47q0-52.17.06-104.34c0-7.43-.75-8.24-8.29-8.28-19-.1-32.21-9.95-36.15-27.16a26.68,26.68,0,0,1-.53-5.92q0-79.14,0-158.26a32.53,32.53,0,0,1,32.83-33c39.6-.09,79.2.45,118.79-.22,22.31-.39,35.78,17.2,35.7,35.69-.21,49.42,0,98.85-.11,148.27,0,4.95,0,10-1,14.84-3.17,14.22-15.93,24.31-30.57,24.83-13.75.49-14.32,1.06-14.29,14.66q.09,52.67.24,105.33Z"/><path class="cls-1" d="M113.93,193.42c-32.53-.2-58.59-26.24-58.35-58.31s27.2-58.55,59.94-58c30.52.49,56.87,24.62,57.14,59.14C172.91,168.19,146.25,193.62,113.93,193.42Zm42.51-57.91c0-24-18.78-43.12-42.39-43.06-23.37.06-42.11,19.12-42.12,42.84,0,24.47,18,42.6,42.4,42.6C138.35,177.88,156.44,159.68,156.44,135.51Z"/><path class="cls-1" d="M455.88,136.23c-.29,32.18-26.17,57.44-58.6,57.19-33.1-.25-58.4-26-58.14-59.31.25-31.67,27.47-57.48,60.24-57.09C430.42,77.38,456.16,104.35,455.88,136.23Zm-58.39,41.66c23.93,0,42.47-18.38,42.52-42.18S421.07,92.5,397.62,92.45s-42.57,19.33-42.54,43.13S373.56,177.87,397.49,177.89Z"/><path class="cls-1" d="M256.26,133.34c-37-.23-66.71-29.88-66.45-66.4S220.79.27,258.07.87c34.75.56,64.76,28,65.06,67.34C323.41,104.61,293.06,133.57,256.26,133.34Zm48.41-65.95c0-27.37-21.39-49.1-48.27-49-26.61.07-47.95,21.78-48,48.78,0,27.87,20.54,48.51,48.29,48.51C284.07,115.65,304.66,94.92,304.67,67.39Z"/><polygon class="cls-1" points="348.41 396.48 355.71 396.48 371.44 396.48 371.56 396.48 371.56 411.39 371.44 411.39 371.44 511.14 355.71 511.14 355.71 411.39 348.41 411.39 348.41 396.48"/><polygon class="cls-1" points="163.43 396.48 156.13 396.48 140.4 396.48 140.27 396.48 140.27 411.39 140.4 411.39 140.4 510.14 156.13 510.14 156.13 411.39 163.43 411.39 163.43 396.48"/><path class="cls-1" d="M141.81,218.65H104.74v0q-20.26,0-40.52.12c-16.63.11-29.58,12.54-29.67,29.26q-.37,67.13,0,134.25c.09,16.58,12.38,28.3,29,28.72l1.09,0c2.19,0,5,.1,7.89,0v99.13H88.07V395.6H68c-1.09,0-2.12,0-3.1-.09-11.56-.76-15.89-6-15.89-18.79q0-54.64,0-109.3c0-6-.15-12,.09-18,.33-8.35,4.32-12.85,12.44-14.35a43,43,0,0,1,7.42-.7c22,0,43.92,0,65.87,0h7Z"/><path class="cls-1" d="M370.19,218.65h37.07v0q20.26,0,40.52.12c16.63.11,29.58,12.54,29.67,29.26q.38,67.13,0,134.25c-.09,16.58-12.38,28.3-28.95,28.72l-1.09,0c-2.19,0-5,.1-7.89,0v99.13H423.93V395.6h20.12c1.09,0,2.12,0,3.1-.09,11.56-.76,15.89-6,15.89-18.79q0-54.64,0-109.3c0-6,.15-12-.09-18-.33-8.35-4.32-12.85-12.44-14.35a43,43,0,0,0-7.42-.7c-22,0-43.92,0-65.87,0h-7Z"/></svg>