<svg id="Layer_1" data-name="Layer 1" xmlns="http://www.w3.org/2000/svg" viewBox="0 0 512 512"><defs><style>.cls-1{fill:#ee305e;}</style></defs><title>icons source</title><path class="cls-1" d="M511.56,99c0-23.06-18.33-41.08-41.38-41.47-10.13-.18-20.27,0-30.4-.07-2.09,0-4.17-.29-7.63-.55,2.34-2.59,3.6-4.08,5-5.48,4.68-4.78,9.63-9.32,14-14.33,5-5.75,4.53-12.95-.74-18-5.6-5.37-13-5.82-18.47-.45Q410,40.17,388.52,62.12c-5.5,5.62-5.71,12.55-.42,18,14.42,14.8,29,29.49,43.88,43.8,6.74,6.48,15.88,4.59,20.65-3.33,3.15-5.24,2.46-11-2.25-16.08-5.69-6.12-11.55-12.08-17.55-18.31,1.34-.69,1.69-1,2-1q15.5-.11,31-.14c14.16,0,18.43,4.28,18.43,18.52V422.76c0,14-4.58,18.7-18.49,18.72-22.89,0-77.4,0-100.29,0v27.33c23.85,0,79.33.11,103.18-.1,24.23-.21,42.81-18,42.85-41.32Q511.79,263.23,511.56,99Z"/><path class="cls-1" d="M45,57.35C22.47,56.82.51,73.71.46,101.15Q.19,256.22.46,411.29c0,22,14.38,39,36,42.4,10.12,1.57,20.59.85,30.9,1.1,3.91.1,7.82,0,13.22,0-2.55,2.78-3.83,4.26-5.2,5.66-4.56,4.62-9.33,9-13.67,13.84a13.28,13.28,0,0,0,0,18.22c4.76,5,13.33,6,18.18,1.24Q102.51,471.7,124.54,449a12.42,12.42,0,0,0-.22-17.15q-21.72-22.11-43.87-43.8a12.92,12.92,0,0,0-18.12.13,13.51,13.51,0,0,0-.51,19.13c4.52,4.91,9.32,9.58,13.95,14.4,1.31,1.37,2.45,2.92,4.76,5.71-13.11,0-24.56.07-36,0-10.54-.08-16.6-6-16.6-16.64q-.07-154.75,0-309.52C27.92,90.17,33.36,85,44.52,85c24.2,0,78.28,0,102.47,0V57.58C123,57.61,69,57.91,45,57.35Z"/><path class="cls-1" d="M358.21.56H153.65A11.15,11.15,0,0,0,142.5,11.71V130.3a11.15,11.15,0,0,0,11.15,11.15H358.21a11.15,11.15,0,0,0,11.15-11.15V11.71A11.15,11.15,0,0,0,358.21.56ZM341.68,113.62H170.18V28.39h171.5Z"/><path class="cls-1" d="M358.21,185.57H153.65a11.16,11.16,0,0,0-11.15,11.16V315.31a11.16,11.16,0,0,0,11.15,11.16H358.21a11.16,11.16,0,0,0,11.15-11.16V196.73A11.16,11.16,0,0,0,358.21,185.57ZM341.68,298.63H170.18V213.4h171.5Z"/><path class="cls-1" d="M358.21,370.55H153.65A11.15,11.15,0,0,0,142.5,381.7V500.29a11.15,11.15,0,0,0,11.15,11.15H358.21a11.15,11.15,0,0,0,11.15-11.15V381.7A11.15,11.15,0,0,0,358.21,370.55ZM341.68,483.61H170.18V398.38h171.5Z"/></svg>