<svg id="Layer_1" data-name="Layer 1" xmlns="http://www.w3.org/2000/svg" viewBox="0 0 512 512"><defs><style>.cls-1{fill:#ee305e;}</style></defs><title>icons source</title><path class="cls-1" d="M506.28,472.67H17.94C61,415.21,123.61,331.56,166.18,274.79c1.85,2.58,2.94,4.42,4.34,6q39.63,43.89,79.35,87.7c5.41,6,9.31,5.89,13.39-.23Q301.69,310.67,340,253.06q42.73-64,85.54-128c.94-1.4,2.15-2.61,3.23-3.92l1.22.63V128q0,26.25,0,52.5c0,4.31.58,8.5,6.28,8.32,5.31-.17,5.66-4.09,5.64-8.24q-.08-28.27,0-56.54c0-7.7-.29-15.41.22-23.07.22-3.32,1.73-7.21-1.87-8.61-2.7-1.06-6.69-.51-9.52.71-13.06,5.62-25.92,11.69-38.83,17.66-10.47,4.83-20.9,9.75-31.35,14.62-3.29,1.54-5.65,3.81-4.09,7.66,1.65,4,5,4.29,8.69,2.84,1.08-.42,2.13-.89,3.18-1.37q21.76-9.93,43.55-19.84c1.75-.79,3.62-1.32,5.44-2l.81,1.21Q337.21,235.63,256,357.81c-1.93-1.82-3.1-2.77-4.1-3.89q-39.3-43.79-78.57-87.62c-6.82-7.62-9.47-7.65-15.56.46C116.27,321.91,54.62,404.25,11.88,461.18v-428a5.4,5.4,0,0,0-5.39-5.38H5.72A5.4,5.4,0,0,0,.33,33.17V478.83a5.4,5.4,0,0,0,5.39,5.38H506.28a5.4,5.4,0,0,0,5.39-5.38v-.78A5.4,5.4,0,0,0,506.28,472.67Z"/></svg>