<svg id="Layer_1" data-name="Layer 1" xmlns="http://www.w3.org/2000/svg" viewBox="0 0 512 512"><defs><style>.cls-1{fill:#ee305e;}</style></defs><title>icons source</title><path class="cls-1" d="M116.68,502C150.33,423.32,184,344.68,218.2,264.75L105.11,284.8c4.94-12.29,9.71-24.09,14.43-35.92q47-117.65,93.89-235.33c1.14-2.86,2.49-4.06,5.74-4.05,36.33.14,72.66,0,109,.17,24.48.1,49,.51,73.45.77,1.32,0,2.64,0,5.28,0C365,69.3,323.66,127.35,282.33,185.39l.68,1.09,117.52-19.3.62,1.11L117.54,502.5ZM377.08,27.34c-2-.17-2.82-.31-3.63-.31q-71.49,0-143-.09c-3.35,0-4.65,1.46-5.73,4.22q-8.15,20.92-16.5,41.75-37.42,93.81-74.84,187.63c-.68,1.7-1.07,3.52-1.8,6l112-19.79c-27,59.64-53.61,118.42-80.23,177.2l1.87,1.22L365.71,187.87l-1.12-1.59L249.13,203.66Z"/></svg>