<svg id="Layer_1" data-name="Layer 1" xmlns="http://www.w3.org/2000/svg" viewBox="0 0 512 512"><defs><style>.cls-1{fill:#ee305e;}</style></defs><title>icons source</title><path class="cls-1" d="M7.57,138.29c.53-2.18,1-4.37,1.6-6.54,3.19-12.49,15.65-22.06,29.17-22.38,3.89-.1,7.78,0,11.68,0h422.2c15,0,27.47,9,30.71,22.68A66,66,0,0,1,504.36,147q.12,111.14.05,222.28c0,19.62-13.78,33.42-33.31,33.42H42.57c-16.56,0-29.52-8.74-33.32-22.4-.6-2.17-1.12-4.36-1.68-6.54Zm249.06,65.86H26.13c-7.17,0-7.18,0-7.18,7.36q0,50.34,0,100.67c0,19.29-.08,38.58,0,57.87.07,11.26,6.28,18.55,17.34,20.61a42.41,42.41,0,0,0,7.71.67q212,0,424.05,0c1.13,0,2.27,0,3.4,0,13.84-.65,21.86-8.94,21.86-22.62q0-78.54,0-157.07c0-7.49,0-7.5-7.67-7.5Zm-1-49.2v-.31H479.27a79.79,79.79,0,0,0,10.15-.17c1.39-.18,3.62-1.86,3.66-2.92.19-5.14.53-10.48-.61-15.43C490.15,126,482,120.68,470.13,120.68q-108.42,0-216.85,0-105.75,0-211.5,0c-13.29,0-19.6,5.13-22.15,18.21-.62,3.15-.31,6.46-.72,9.66-.59,4.56,1.57,6.1,5.78,6.11,9.56,0,19.11.28,28.67.28Q154.49,155,255.62,155Z"/><rect class="cls-1" x="376.71" y="270.02" width="82.58" height="86.98"/><rect class="cls-1" x="49.3" y="257.23" width="168.28" height="12.8"/><rect class="cls-1" x="49.3" y="257.23" width="168.28" height="12.8"/></svg>