<svg id="Layer_1" data-name="Layer 1" xmlns="http://www.w3.org/2000/svg" viewBox="0 0 512 512"><defs><style>.cls-1{fill:#ee305e;}</style></defs><title>icons source</title><g id="GJP0Gf.tif"><path class="cls-1" d="M87.21,472.5a4.83,4.83,0,0,1,0-1.47c3.11-17.93,6.31-36.13,9.42-54.34,4.93-28.9,10-57.78,14.46-86.74.43-2.73-1.92-6.69-4.15-8.89C75.42,290,43.51,259.3,12.19,228c-5-5-9.38-12-10.9-18.79-3.35-15,7.11-29,22.58-31.4,33.24-5.13,66.56-9.75,99.85-14.6,11.65-1.7,23.25-3.95,35-5,6.83-.61,9.85-4,12.61-9.67,19.11-39.37,38.26-78.72,58.08-117.73a39.73,39.73,0,0,1,14.88-15.78c13.41-7.64,29.74-1.3,37,13.2,16.39,32.94,32.6,66,48.88,99,3,6,6.58,11.86,8.74,18.19,3.26,9.54,9.73,12.45,19.25,13.72,42.87,5.72,85.63,12.2,128.44,18.41,11.87,1.72,19.78,8.34,23.41,19.68,3.71,11.59-.24,21.17-8.64,29.36-31.7,30.89-63.32,61.88-95.15,92.64-4.53,4.38-6.46,8.31-5.25,15,7.88,43.74,15.1,87.59,22.73,131.38,1.84,10.6-.1,19.74-7.65,26.74-9.18,8.53-22.92,9.93-34,4.08-39.67-20.95-79.49-41.61-119.1-62.66-5.08-2.7-8.83-2.71-13.93,0q-59.56,31.63-119.47,62.65c-17.27,9-35.95,1.29-41-16.52A56.88,56.88,0,0,1,87.21,472.5Zm308.61.73a.33.33,0,0,0,.47-.29,40.17,40.17,0,0,0,0-6c-8.22-48.06-16.37-96.14-24.92-144.14-.89-5,.25-7.89,3.71-11.23Q426.95,261.46,478.54,211c1.53-1.49,2.81-3.23,4.84-5.64a.32.32,0,0,0-.17-.52c-3.3-.75-5.46-1.36-7.66-1.68-46.82-6.84-93.63-13.77-140.49-20.31-6.51-.91-9.93-3.68-12.74-9.48C302.08,131.63,281.51,90,261,48.41c-1.27-2.58-2.68-5.08-4.74-8.94a.32.32,0,0,0-.57,0c-2,3.65-3.28,5.94-4.45,8.3q-31.53,63.64-63,127.36c-1.92,3.89-3.89,6.55-8.75,7.24-40.9,5.8-81.76,11.87-122.63,17.88-9.15,1.34-18.3,2.74-28.69,4.31a.33.33,0,0,0-.2.53c2.15,2.52,3.22,3.94,4.48,5.17,33.93,33.08,67.77,66.25,101.95,99.06,5.16,4.95,6.57,9.52,5.34,16.44-8.05,45.16-15.71,90.4-23.44,135.63-.56,3.27-.72,6.61-1.16,11.17a.32.32,0,0,0,.45.32c3.4-1.56,5.64-2.48,7.78-3.61q62.88-33,125.71-66.23c4.72-2.5,8.35-2.75,13.25-.14,36.3,19.3,72.79,38.24,109.2,57.34C379.27,464.27,386.9,468.44,395.82,473.23Z"/></g></svg>