<?xml version="1.0" encoding="utf-8"?>
<!-- Generator: Adobe Illustrator 23.0.6, SVG Export Plug-In . SVG Version: 6.00 Build 0)  -->
<svg version="1.1" id="Layer_1" xmlns="http://www.w3.org/2000/svg" xmlns:xlink="http://www.w3.org/1999/xlink" x="0px" y="0px"
	 viewBox="0 0 738.4 749" style="enable-background:new 0 0 738.4 749;" xml:space="preserve">
<style type="text/css">
	.st0{clip-path:url(#SVGID_2_);}
	.st1{fill:#FBB585;}
	.st2{fill:#E6A175;}
</style>
<title>Hand_Clicking</title>
<g>
	<defs>
		<rect id="SVGID_1_" x="-251.1" y="-274.9" width="1024" height="1024"/>
	</defs>
	<clipPath id="SVGID_2_">
		<use xlink:href="#SVGID_1_"  style="overflow:visible;"/>
	</clipPath>
	<g class="st0">
		<path class="st1" d="M630.5,349.8l-5.3-13.9c-17.6-46.3-60.2-52.5-82.9-45.5l-46.4,14.3c-22.4-26.2-57-36.1-81.8-29l-1.5,0.5
			c-0.1,0-0.2,0.1-0.3,0.1l-72.5,22.3c-22.6-20-55-27.9-77.2-21.1l-65,20L119.1,41.8C95.9-33.6-20.1,2,3,77.4l125.8,409.8
			c-35,15-132.2,46.2,14.1,251.2c52.6,73.7,153.8,135.3,153.8,135.3l70.1,229.3l371.5-43.6l-86.2-283.8
			C730,602.4,684.6,491.1,630.5,349.8z"/>
		<path class="st2" d="M456.5,1092.4L325.7,856.6c0,0-127.8-66.8-200.1-143.6c5.4,8.2,11.2,16.6,17.4,25.3
			c52.6,73.7,153.8,135.3,153.8,135.3l70.1,229.3L456.5,1092.4z"/>
		<path class="st2" d="M30.2,69c-9.4-30.5,9.6-56.2,30.5-69C24.8,1.7-10.7,32.5,3,77.3l143.2,466.6l27.2-8.3L30.2,69z"/>
	</g>
</g>
</svg>
