<svg id="Layer_1" data-name="Layer 1" xmlns="http://www.w3.org/2000/svg" viewBox="0 0 512 512"><defs><style>.cls-1{fill:#ee305e;}</style></defs><title>icons source</title><path class="cls-1" d="M510.06,64.78c-2.42,8.74-4.58,17.57-7.3,26.21-12.8,40.56-32.95,77.54-55.42,113.37-.88,1.41-1.86,2.76-2.7,4.19-.6,1-1.71,2.12.59,2.79,4.57,1.33,4.62,5.12,4.61,8.95q0,37.76,0,75.5,0,84.12,0,168.23c0,20.64-12.44,36.92-31.86,42a29.45,29.45,0,0,1-7.69.71H51.05C30.43,506.76,12,489,11.59,468.12c-.37-18.87-.15-37.75-.15-56.63q0-95,0-189.88c0-4.39-.9-9.22,5.3-10.58,1.68-.37.81-1.65.58-2.67-4.77-21.33.11-40.17,15.7-57.48-8.54,1.68-15.83,3-23.09,4.55-8.12,1.69-9.62.57-9.6-7.57a23.78,23.78,0,0,1,29.21-23.43c1.39.31,2.79.59,4.51,1-.2-4-2.77-6.64-4.14-9.72s-3.47-6,.46-8.15c4.27-2.29,5.77,1.55,7.34,4.44,1.82,3.37,3.51,6.81,5.45,10.6,5.15-21.5,27.46-24.77,39.12-15.43,5,4,5.15,6.36.51,10.69s-9.4,8.88-14.06,13.37c-.6.57-1.4,1.55-1.26,2.15.33,1.41,1.67.91,2.73.84,19.46-1.25,35.85,5.24,49,19.69,1.69,1.86,2.83,1.47,4.65.68,20.71-9.05,40.6-7.45,59.29,5.28,3.62,2.46,3.91.61,4.94-2,9.79-24.77,21.89-48.3,37.67-69.83A160.45,160.45,0,0,1,257.49,55c7.29-5.57,12.59-3.53,13.74,4.88a9.48,9.48,0,0,0,.92,2.56,9.33,9.33,0,0,0,1.08,1.5c4.42-4.35,7.21-9.48,9.49-14.9,1.83-4.35,4.65-6,9.53-5.44C303.87,44.88,312,51.17,318,60.7c8.55,13.55,10.55,28.88,11.93,44.38.11,1.24.19,2.49.35,4.69,6.54-7,12.41-13.51,18.48-19.8,24.7-25.62,50.72-49.64,81.44-68.08a153.23,153.23,0,0,1,37.7-16c5.44-.56,10.65-1.24,16.66,0,12.91,3.45,19,12.22,24.38,24.59C512.37,38.54,512.37,52.78,510.06,64.78Zm-279.71,430q44.41,0,88.82,0c30,0,60,.2,89.93-.21,16.16-.22,27.91-12.89,27.92-29q0-118.52.12-237c0-4.25-1.14-5.1-5.19-5.07q-43.86.27-87.71,0c-4.58,0-5.22,1.44-5.3,5.52-.31,16.62,1.51,33.31-1.07,49.86-4.72,30.28-33.16,57.7-63.34,61.43-16.61,2.06-33.26.89-49.89.91-15.32,0-30.68,1.12-46-.89-32.14-4.21-60.67-33.61-64-65.91-1.59-15.51-.48-31-.71-46.56,0-3.34-.76-4.34-4.25-4.32q-40.8.23-81.61,0c-3.66,0-4.52,1-4.51,4.57q.18,67.72,0,135.45c0,3.85.89,4.91,4.82,4.86,17.57-.23,35.15-.1,52.73-.1,6.69,0,9.77,2,9.7,6.32s-2.79,6-9.87,6c-17.77,0-35.53.07-53.3-.06-3,0-4.24.63-4.06,3.9a120.76,120.76,0,0,1,0,15c-.26,3.75,1.07,4.53,4.61,4.5,17.76-.18,35.53,0,53.29-.13,4.62,0,8.81.35,9.32,6.09.38,4.27-2.66,6.25-9,6.26-18,0-35.9.08-53.85-.08-3.29,0-4.6.63-4.35,4.21a106.75,106.75,0,0,1,0,14.42c-.24,3.6.84,4.63,4.51,4.58,15.36-.22,30.72-.1,46.08-.1,14.8,0,29.61-.06,44.41,0,5.84,0,8.84,3.57,7.32,8.33-1.29,4-4.62,4.16-8.1,4.15q-42.18,0-84.38,0c-9.76,0-9.3,0-9.86,9.72C22.49,480,35.8,495.26,57.15,495,114.87,494.39,172.61,494.81,230.35,494.81ZM270.66,211c7.57,0,14-.17,20.43.06a13.15,13.15,0,0,0,9.5-3.18c9.1-7.41,21-7.31,30,.33,2.86,2.45,5.67,2.87,9,2.84,2.69,0,3.07-.8,2.18-3.31a135.92,135.92,0,0,1-4.28-14.26c-2.07-8.75-4.65-17.53-2.88-26.66,1.17-6,6.51-7.8,11.24-3.83a34.45,34.45,0,0,1,7.73,10,158,158,0,0,1,13.51,33.72c.88,3.11,2.13,4.4,5.61,4.36,17.2-.21,34.4-.14,51.6-.05,2.63,0,4.38-.6,5.94-3,23.27-35.29,44.11-71.86,58.19-111.91,5.82-16.55,10.44-33.46,10.14-51.23-.33-19.42-9-28.4-25.57-26.76A48.4,48.4,0,0,0,464.37,20c-22.08,6.41-40.39,19.45-58,33.53-38.35,30.68-70.7,67.1-100.32,106.05C293.69,175.9,282,192.65,270.66,211Zm-43.83,12.48c-20.15,0-40.31.12-60.46-.1-3.94,0-4.93,1-4.75,4.87.34,7.2,0,14.42.11,21.63.3,23.63,14.24,40.61,37.47,43a276.54,276.54,0,0,0,54.81,0c20.24-1.95,33.78-15.07,36.77-34.71,1.45-9.59.28-19.55.67-29.33.16-4.15-.74-5.57-5.28-5.51C266.39,223.68,246.61,223.51,226.83,223.51Zm-2.91,105.56c13.87,0,25.16.08,36.45,0,33.86-.27,60.21-22.51,65.55-55.73,2.36-14.67.62-29.54.94-44.31.18-8.45-4.62-14-11.59-14s-11.67,5.67-11.74,14c-.07,8.52,0,17,0,25.54-.21,26.18-23.37,50.27-49.61,51-18.12.48-36.27.43-54.4,0-24-.56-46.09-21-49.28-44.72-1.44-10.7-.45-21.42-.78-32.13-.25-8.23-4.56-13.52-11.32-13.7s-11.94,5.47-11.88,13.81c.08,13.86-.52,27.72.51,41.59,2.13,28.43,26.6,54.11,54.87,57.63C196.56,329.94,211.55,328.49,223.92,329.07Zm5-118c-2.92-8.57-.65-16,3.56-23,4.89-8.16,11.3-15.06,18.18-21.52,2.49-2.34,5.32-6.85,9.11-3,4.18,4.28-.93,6.6-3.42,9.2-7.88,8.26-16.3,16.11-20,27.46-1.34,4.11-.22,7.32,3,9.8,2.64,2.06,17.36-.34,19.14-3.2,11.51-18.45,23.91-36.29,37-53.93-4.11-.62-7.8-1.8-10.11-4.76s-4.35-3.27-7.78-1.9c-3.83,1.53-7.18-.59-9.84-3.42a18.32,18.32,0,0,1-4.85-9.77c-.7-4.71-2-5.42-6.5-3.48-12.19,5.23-23.27.47-28.68-11.68-.86-1.93-1.63-3.92-2.45-5.91-.45.28-.88.4-1.06.68a324.78,324.78,0,0,0-27.43,57.06c-.69,1.84-.21,3,.8,4.44,6.81,10,10.76,20.94,10.72,33.11,0,2.82.73,4,3.73,3.87C217.37,210.88,222.73,211,229,211Zm-154.3,0c13,0,25.9-.23,38.84.12,4.29.12,5.86-1.59,6.77-5.26,8.36-33.74-18.64-62.35-50.21-59.25-28.87,2.84-48.87,32.3-40.39,59.92,1.06,3.44,2.55,4.61,6.15,4.55C48.77,210.89,61.72,211,74.66,211ZM260.76,68.31c-11.28,9.1-20,20-28.27,31.46-1.17,1.62-1.72,3.1-.82,5.09,1.36,3,2.38,6.17,3.71,9.19,3.93,8.86,11.39,11.46,19.92,6.82a32.21,32.21,0,0,0,6.2-4.59c1.83-1.68,3.75-2.52,6-1.38,2,1,2.33,3,2.27,5.2a30,30,0,0,0,2.34,13.46c2.44,5.35,3.92,5.63,7.51,1.27a9.74,9.74,0,0,0,1.28-1.81c1.22-2.51,3.17-3.62,5.86-2.84s2.8,3.11,2.42,5.43a6.91,6.91,0,0,0,3.95,7.79c3.35,1.75,7.43,2.22,9.77-.7,7.15-8.94,16.76-16.27,15-30.39-1.68-13.54-2-27.19-7.72-39.9-2.61-5.82-6.25-10.83-11.84-14.23-3.17-1.93-5.45-2.16-7.3,1.93a43.59,43.59,0,0,1-6,9.25C276.59,79.69,268.66,79.38,260.76,68.31ZM175.15,211c5.54,0,11.08-.14,16.62.05,2.94.1,4.21-.53,4.16-3.88-.42-31-33-55.68-65.43-42.24-2.76,1.14-2.23,2.54-1.32,4.59,4.19,9.42,6.09,19.26,4.6,29.54-.44,3.07.4,3.76,3.38,3.54,4.9-.34,10,.58,13.47,3.91,4.68,4.5,9.92,4.78,15.66,4.51C169.24,210.91,172.2,211,175.15,211ZM73.32,112.12a14.08,14.08,0,0,0-16.39,2.55c-4.41,4.12-6.52,9.2-5,15.38.7,2.82,1.81,4,4.21,1.33ZM8.87,146.91l29.39-5.78c-4.27-6.92-10.09-9.76-16.84-8.58C15.09,133.65,10.19,139,8.87,146.91Zm333.48,26c.36,2.53.68,5.05,1.08,7.57,1.5,9.63,4.44,18.85,7.56,28.06,1.29,3.8,4.11,2.19,6.39,2.4,2,.17,1.88-1.34,1.45-2.66C354.83,195.94,350.57,183.71,342.35,172.92ZM67,134.14c-.12-.12-.26-.35-.35-.33a3.48,3.48,0,0,0-.72.31c.11.11.25.34.34.32A3,3,0,0,0,67,134.14Z"/><path class="cls-1" d="M67,134.14a3,3,0,0,1-.73.3c-.09,0-.23-.21-.34-.32a3.48,3.48,0,0,1,.72-.31C66.7,133.79,66.84,134,67,134.14Z"/><path class="cls-1" d="M150.6,445.48c-.34,4.07-2.52,6.07-6.18,6-4-.08-6.18-2.56-6-6.44a5.73,5.73,0,0,1,6.18-5.79C148.46,439.29,150.48,441.85,150.6,445.48Z"/><path class="cls-1" d="M444.4,144.7c-.9,4.16.14,9.8-5.31,11.58s-8.48-2.73-11-6.5c-10.33-15.56-15.81-33.1-20.13-51.06-1.47-6.09-2.63-12.28-2.21-18.62.23-3.41.91-6.88,4.43-8.28,3.77-1.5,6.73.43,9.22,3.28,6.19,7.07,9.8,15.53,13.22,24.11C438.43,113.8,443.11,128.68,444.4,144.7Zm-9.12-.39c-2.38-21.65-8.75-41.92-20.45-60.33A138.43,138.43,0,0,0,435.28,144.31Z"/><path class="cls-1" d="M406.88,187.77c-.46,3.31,1.29,9.36-4.77,11.46s-9.16-3-11.57-7.1c-12.09-20.72-20.51-42.69-21.5-67-.17-4.15,0-8.59,4.67-10.24,5-1.76,7.94,2,10.42,5.41,9,12.42,13.66,26.77,18.1,41.18C404.72,169.57,406.92,177.76,406.88,187.77Zm-9.33-1.52c-1.42-21.68-8.73-41.38-19.95-59.78A139.69,139.69,0,0,0,397.55,186.25Z"/><path class="cls-1" d="M50.9,163.72a2.87,2.87,0,0,1,2.63,1.68,3.51,3.51,0,0,1-.55,4.08A78.89,78.89,0,0,0,47.4,177c-3.8,6.43-4.41,13.53-3.69,20.8.23,2.31-.34,4.25-2.9,4.39-2.13.12-3.27-1.55-3.52-3.55-1.56-12.79,1.59-24.08,10.81-33.38C48.86,164.48,49.63,163.62,50.9,163.72Z"/><path class="cls-1" d="M298.2,117.94a10.51,10.51,0,0,1-2.64-1.61,13.31,13.31,0,0,1-2-3.25c-3.85-7.68-3.84-7.67-11.82-4.08a15.32,15.32,0,0,1-3.6,1.28,3.06,3.06,0,0,1-3.53-2,2.91,2.91,0,0,1,1.38-3.74c3.41-2.15,9.14-2.42,10.11-5.83.79-2.78-2.77-6.78-4.36-10.26a3.08,3.08,0,0,1,1.34-4.28c1.9-1,3.66-.35,4.67,1.52,1.83,3.37,2.8,8.72,5.44,9.7s6.8-2.58,10.37-3.94c1.56-.59,3.45-.74,4.29,1.23a3.2,3.2,0,0,1-1.72,4.58c-1.16.55-2.27,1.21-3.43,1.77-7,3.45-7,3.45-3.55,10.66a27.13,27.13,0,0,1,1.87,4C301.67,115.85,300.33,117.06,298.2,117.94Z"/><path class="cls-1" d="M186.88,200.4c.22,1.83-.53,3.17-2.56,3.42-2.24.28-3.35-1.06-3.92-3A31.38,31.38,0,0,0,167,182.55c-2.15-1.37-4.55-2.35-6.82-3.53-1.68-.87-2.48-2.25-1.86-4.09a3.18,3.18,0,0,1,3.39-2.26C170.48,173,186.91,191,186.88,200.4Z"/></svg>