<svg id="Layer_1" data-name="Layer 1" xmlns="http://www.w3.org/2000/svg" viewBox="0 0 512 512"><defs><style>.cls-1{fill:#ee305e;}</style></defs><title>icons source</title><g id="_3FMmyI.tif" data-name="3FMmyI.tif"><path class="cls-1" d="M253.2,437.11c-8.41,9.19-19.4,10.62-31.26,10.57-49.52-.23-99-.09-148.57-.1-22.6,0-35.9-13-35.91-35.44-.07-125.29.1-250.58-.16-375.87C37.26,14.52,52.62,0,73.58.34q76.34,1.16,152.71,0C246.38,0,262,15.08,261.72,35.74c-.7,45.57-.21,91.15-.21,136.73v6.9c5.82-1,10.89-2.75,15.77-2.32a49.66,49.66,0,0,1,16.61,4.8c3.18,1.52,4.77,1.79,7.56-.46,10.46-8.43,22.26-11.22,34.69-5.25a28.55,28.55,0,0,1,10.93,10.24c12.14,19.14,23.68,38.65,35.57,58a63.37,63.37,0,0,0,7.17,9.33c16.5,18,26.26,39.63,32.76,62.84,7.39,26.39,9.6,53.42,9.53,80.75a21.24,21.24,0,0,0,3.61,11.29C447.57,426,459.84,443.15,472,460.4c3,4.25,3.79,8.64.87,13.21-2.48,3.87-6.29,5.82-10.63,4.63a14.68,14.68,0,0,1-7.59-5q-21.43-29.76-42.21-60c-1.82-2.66-2.35-6.67-2.31-10,.27-21.73-.4-43.36-4.82-64.73-5.7-27.6-15.09-53.24-35.26-74.17-6.28-6.52-10.08-15.46-14.93-23.35-8.45-13.77-16.82-27.61-25.26-41.39-3.4-5.54-7.16-6.34-12.76-2.84s-6.69,7.12-3.39,12.57c12.56,20.73,25.21,41.42,37.74,62.17,3.21,5.31,2.75,10.41-1.14,14.05s-8.48,4.35-13,1.57a17.15,17.15,0,0,1-5.05-5.6q-24-38.7-47.79-77.49c-4.28-7-9.14-7.75-15.33-2.38-3.49,3-4.73,6.12-1.85,10.74,12.8,20.59,25.24,41.4,37.88,62.09,3,4.91,3.4,9.67-.53,14.15-4.64,5.31-12.47,5.07-16.77-1.17-9.73-14.11-19-28.51-28.34-42.9-9.63-14.9-18.91-30-28.73-44.8-1.55-2.33-5.55-5.05-7.67-4.53-3.63.89-7,3.86-9.73,6.69-.82.84.38,4.42,1.5,6.22q22,35.44,44.18,70.72c2.51,4,5.11,8,7.52,12,3.75,6.35,2.64,13-2.58,16.2-5.63,3.5-11.43,2.06-15.61-4.46Q221.08,260.08,194,217.36c-8.29-13.16-16-26.66-24.13-39.94-3.2-5.27-7.3-5.93-12.93-2.41-5.43,3.4-6.39,6.87-3.25,12.2q41.26,70.06,82.55,140.1c1.39,2.37,3,4.73,3.76,7.32A10.36,10.36,0,0,1,234,347.29c-5.19,2.23-10.57.64-13.8-4.58-4.87-7.87-9.42-15.94-14.16-23.9-1.06-1.78-2.36-3.43-3.91-5.66-5.94,7.86-5.47,15.9-3.62,23.82,2.87,12.36,9.78,22.74,17.55,32.52,20.18,25.41,45,45.76,71,64.82,10.64,7.81,21.68,15.09,32.77,22.26,4.77,3.09,7.23,6.73,7.07,12.56-.28,10.25,0,20.51-.11,30.77-.07,7.13-4.17,11.64-10.43,11.76-6.62.14-10.78-4.26-10.91-11.84-.14-7.3.17-14.61-.2-21.89-.12-2.23-1.27-5.2-3-6.42C286.27,460,270.05,448.85,253.2,437.11Zm-53.68-253.5c12.17-10.93,25.25-13,39.84-7.26.13-2.54.29-4.28.29-6,0-30-.14-60,.14-90,.05-5.63-1.82-6.88-7.07-6.86q-83.15.24-166.3,0C60.79,73.49,59,75,59,80.78q.26,134.64,0,269.27c0,5.5,1.21,7.47,7.13,7.43,36.49-.27,73-.13,109.48-.15,2,0,4-.24,6.61-.4-.76-2-1.16-3.05-1.58-4.12-7.91-20.56-7.53-40,7.29-57.79,1.1-1.33.94-4.9,0-6.61-14.34-24.71-29-49.25-43.41-73.92-4.86-8.3-10.64-16.41-13.62-25.4-4.5-13.62,4.72-28.91,19.27-35.11,15.08-6.43,29.36-2.28,37.64,10.93C191.57,170.89,195.31,176.88,199.52,183.61Zm37.29,240.06a38.11,38.11,0,0,0-2.37-3.4c-12.16-12.89-24.28-25.82-36.61-38.55a9.37,9.37,0,0,0-6.12-2.53c-42.41-.15-84.81-.07-127.22-.18-4.22,0-5.46,1.61-5.39,5.6.19,9.66,0,19.33.09,29,.1,8.11,4,12.11,12,12.12q78.41.06,156.8-.06C230.7,425.65,233.4,424.47,236.81,423.67Zm2.84-371.9c0-6.65.09-12.52,0-18.38C239.5,26,236,22.47,228.7,22.47q-79.24-.07-158.51,0c-6.67,0-10.61,3.9-11,10.56-.2,3.73.27,7.52-.13,11.22-.64,5.82,1.2,7.71,7.41,7.68,55.39-.27,110.79-.16,166.19-.16Z"/><path class="cls-1" d="M149.73,414.59a12.57,12.57,0,0,1-12.84-12c-.22-6.86,5.71-12.72,12.8-12.67a12.34,12.34,0,0,1,0,24.68Z"/><circle class="cls-1" cx="114.53" cy="38.47" r="3.64"/></g><rect class="cls-1" x="136.55" y="34.83" width="55.11" height="7.23" rx="3.62"/></svg>