<svg id="Layer_1" data-name="Layer 1" xmlns="http://www.w3.org/2000/svg" viewBox="0 0 512 512"><defs><style>.cls-1{fill:#ee305e;}</style></defs><title>icons source</title><path class="cls-1" d="M510.62,244.06c-.61-10.28-1.92-16.71-3.12-25Q496.37,142.17,444,84.78C405.6,42.66,358.12,16.5,302.19,5.83c-9.23-1.76-18.69-2.27-28-3.41-2.11-.26-14.25-1.1-18.23-1.1V22.57c61.74,1.18,115,21.68,159.39,63.35,44.59,41.82,69.21,93.72,73.37,154.59,7.57,110.6-64.62,211.61-170.91,240.49A233.43,233.43,0,0,1,47.08,359.89c-46.43-93-21.28-196.42,31-253.63l26.84,26.22c.74-23.06,1.48-45.93,2.22-69H36.48c9,9.34,17.43,18.09,25.93,26.91C61.33,91.9,60.59,93,59.76,94c-30,36.75-48.83,78.44-55.45,125.52-1.15,8.16-2,16.37-3.06,24.55,0,25.09,1.91,40.59,3.12,48.91Q15.5,369.83,67.88,427.22c38.38,42.12,85.87,68.28,141.8,78.95,9.22,1.76,18.68,2.27,28,3.41,2.11.26,4.19.73,6.28,1.1h23.88c8.34-1,16.7-1.91,25-3.11q76.88-11.13,134.26-63.5c42.12-38.38,68.29-85.87,79-141.8,1.76-9.22,2.27-18.68,3.42-28C509.78,272.13,511.19,253.43,510.62,244.06Z"/><path class="cls-1" d="M215.65,249.28H105.07v19.87H217.66a42.73,42.73,0,1,0,48.92-56V69.51H247.23V213.66A42.75,42.75,0,0,0,215.65,249.28ZM258,232.2A22.82,22.82,0,1,1,235.17,255,22.82,22.82,0,0,1,258,232.2Z"/></svg>